<?xml version="1.0" encoding="UTF-8" standalone="no"?>
<!-- Created with Inkscape (http://www.inkscape.org/) -->

<svg
   width="128"
   height="128"
   viewBox="0 0 33.866667 33.866667"
   version="1.1"
   id="svg1"
   xmlns="http://www.w3.org/2000/svg"
   xmlns:svg="http://www.w3.org/2000/svg">
  <defs
     id="defs1">
    <filter
       style="color-interpolation-filters:sRGB"
       id="filter378-3"
       x="-0.07086614"
       y="-0.070866141"
       width="1.1712598"
       height="1.1712598">
      <feFlood
         result="flood"
         in="SourceGraphic"
         flood-opacity="0.800000"
         flood-color="rgb(0,0,0)"
         id="feFlood377-7" />
      <feGaussianBlur
         result="blur"
         in="SourceGraphic"
         stdDeviation="1.000000"
         id="feGaussianBlur377-5" />
      <feOffset
         result="offset"
         in="blur"
         dx="1.000000"
         dy="1.000000"
         id="feOffset377-9" />
      <feComposite
         result="comp1"
         operator="in"
         in="flood"
         in2="offset"
         id="feComposite377-2" />
      <feComposite
         result="comp2"
         operator="atop"
         in="comp1"
         in2="comp1"
         id="feComposite378-2" />
    </filter>
    <clipPath
       clipPathUnits="userSpaceOnUse"
       id="clipPath378">
      <path
         id="path378"
         style="font-size:16px;line-height:1;font-family:'CaskaydiaCove Nerd Font Mono';-inkscape-font-specification:'CaskaydiaCove Nerd Font Mono';letter-spacing:-0.299672px;word-spacing:0px;white-space:pre;display:inline;fill:#800634;fill-opacity:1;stroke:none;stroke-width:0.422545;stroke-dasharray:none;stroke-opacity:1"
         d="M 0.06531101,-1.0595389 A 1.1245942,1.1245942 0 0 0 -0.58971412,0.97961675 L 5.6291256,5.440026 A 1.1245942,1.1245942 0 0 0 6.2841507,5.6505699 H 10.762105 V 22.223096 c 0,2.246879 -0.365878,3.899147 -0.9591436,4.94193 -0.2901318,0.510915 -0.6019266,0.832869 -0.9376995,1.039074 -0.3357732,0.206202 -0.7099944,0.313864 -1.210627,0.313864 -0.5237562,0 -0.9224483,-0.110701 -1.2808079,-0.325562 C 6.0154672,27.977541 5.6832045,27.643557 5.3776429,27.127986 4.7676294,26.084754 4.3931555,24.449524 4.3931555,22.223096 V 17.758787 A 1.1245942,1.1245942 0 0 0 2.354,17.103762 l -3.20299491,4.464309 a 1.1245942,1.1245942 0 0 0 -0.21054379,0.655025 c 0,3.7808 0.67525529,6.905383 2.1327306,9.197645 1.5070083,2.352085 3.7214134,3.573396 6.5054135,3.573396 2.7476636,0 4.9430746,-1.221866 6.4683736,-3.565599 1.482234,-2.277562 2.167821,-5.407916 2.16782,-9.205442 V 0.06531081 A 1.1245942,1.1245942 0 0 0 15.08995,-1.0595389 H 1.9874978 Z m 19.02302199,0 a 1.1245942,1.1245942 0 0 0 -1.12485,1.12484971 V 33.869288 a 1.1245942,1.1245942 0 0 0 2.039155,0.655025 l 3.201047,-4.464309 a 1.1245942,1.1245942 0 0 0 0.210543,-0.655025 V 24.19402 h 2.111286 c 3.075315,0 5.507626,-1.164087 7.140943,-3.509064 1.597544,-2.294647 2.32768,-5.554016 2.32768,-9.58559 0,-3.7475415 -0.738502,-6.7960731 -2.353022,-8.9188699 -1.642947,-2.17594764 -4.073585,-3.240035 -7.115601,-3.240035 z m 4.325895,6.7101088 h 2.111286 c 0.731342,0 1.319482,0.1171926 1.791571,0.3197147 0.472092,0.2025218 0.838108,0.4846186 1.152143,0.8889626 0.628075,0.808688 1.039074,2.1945893 1.039074,4.2401188 0,2.376703 -0.427195,4.037566 -1.081961,5.000414 -0.327385,0.481425 -0.698792,0.803461 -1.159941,1.029326 -0.461151,0.225864 -1.026582,0.354805 -1.740886,0.354805 h -2.111286 z" />
    </clipPath>
  </defs>
  <g
     id="layer1"
     transform="matrix(0.93932375,0,0,0.93932374,0.99584279,0.99525028)"
     style="display:inline">
    <path
       id="text1"
       style="font-size:16px;line-height:1;font-family:'CaskaydiaCove Nerd Font Mono';-inkscape-font-specification:'CaskaydiaCove Nerd Font Mono';letter-spacing:-0.299672px;word-spacing:0px;white-space:pre;display:inline;fill:#b20848;fill-opacity:1;stroke:none;stroke-width:0.423301;stroke-dasharray:none;stroke-opacity:1"
       d="M 0,-1.1269531 A 1.1266971,1.1266971 0 0 0 -0.65625,0.91601563 L 5.5742187,5.3847656 a 1.1266971,1.1266971 0 0 0 0.65625,0.2109375 H 10.716797 V 22.199219 c 0,2.25108 -0.366563,3.906438 -0.9609376,4.951172 -0.2906743,0.511869 -0.6030522,0.834426 -0.9394531,1.041015 -0.336401,0.20659 -0.711322,0.314453 -1.2128907,0.314453 -0.5247355,0 -0.9241733,-0.110909 -1.2832031,-0.326172 C 5.9612827,27.964425 5.6283988,27.629817 5.3222656,27.113281 4.7111114,26.068098 4.3359375,24.42981 4.3359375,22.199219 v -4.472657 a 1.1266971,1.1266971 0 0 0 -2.0429687,-0.65625 l -3.20898443,4.472657 a 1.1266971,1.1266971 0 0 0 -0.21093747,0.65625 c 0,3.78787 0.67651797,6.918294 2.1367187,9.214843 1.5098262,2.356484 3.7283721,3.580079 6.5175781,3.580079 2.7528013,0 4.9523183,-1.22415 6.4804693,-3.572266 1.485006,-2.28182 2.171875,-5.418029 2.171874,-9.222656 V 0 A 1.1266971,1.1266971 0 0 0 15.052734,-1.1269531 H 1.9257812 Z m 19.058594,0 A 1.1266971,1.1266971 0 0 0 17.931641,0 v 33.867187 a 1.1266971,1.1266971 0 0 0 2.042968,0.65625 l 3.207032,-4.472656 a 1.1266971,1.1266971 0 0 0 0.210937,-0.65625 v -5.220703 h 2.115234 c 3.081067,0 5.517927,-1.166263 7.154297,-3.515625 1.60053,-2.298938 2.332032,-5.564402 2.332032,-9.603515 0,-3.7545489 -0.739883,-6.8087811 -2.357422,-8.9355474 -1.646019,-2.18001658 -4.081202,-3.2460937 -7.128907,-3.2460937 z m 4.333984,6.7226562 h 2.115234 c 0.73271,0 1.32195,0.1174118 1.794922,0.3203125 0.472973,0.2029007 0.839673,0.485525 1.154297,0.890625 0.629249,0.8102002 1.041016,2.1986932 1.041016,4.2480474 0,2.381148 -0.427994,4.045116 -1.083985,5.009765 -0.327995,0.482325 -0.700096,0.804963 -1.162109,1.03125 -0.462013,0.226287 -1.028501,0.355469 -1.744141,0.355469 h -2.115234 z"
       transform="matrix(0.99813354,0,0,0.99813355,0.06531101,0.06531084)" />
    <path
       id="text1-7-2-3"
       style="font-size:16px;line-height:1;font-family:'CaskaydiaCove Nerd Font Mono';-inkscape-font-specification:'CaskaydiaCove Nerd Font Mono';letter-spacing:-0.299672px;word-spacing:0px;white-space:pre;display:inline;fill:#e30b5c;fill-opacity:1;stroke:none;stroke-width:0.423334;stroke-dasharray:none;stroke-opacity:1;filter:url(#filter378-3)"
       d="M -7e-7,0 6.23011,4.468978 h 5.614128 v 17.731217 c 0,2.367531 -0.367568,4.205283 -1.107943,5.506641 -0.730096,1.285679 -1.7763024,1.926498 -3.1336584,1.926498 -1.3984878,0 -2.4823335,-0.649944 -3.2535487,-1.951303 C 3.58814,26.380674 3.2080722,24.552047 3.2080722,22.200195 V 17.727083 L -7e-7,22.200195 c 0,3.684568 0.6536267,6.553276 1.9595703,8.607227 1.3059436,2.038271 3.1624382,3.059245 5.568652,3.059245 2.365095,0 4.2090774,-1.020974 5.5355814,-3.059245 1.326506,-2.038272 1.988508,-4.906979 1.988508,-8.607227 V 0 H 1.9264967 Z M 19.058268,0 v 33.866667 l 3.208073,-4.473112 v -6.345866 h 3.241146 c 2.745559,0 4.82134,-1.011846 6.230111,-3.03444 1.419051,-2.038271 2.129069,-5.023195 2.129069,-8.958627 0,-3.63753 -0.710016,-6.390022 -2.129069,-8.255826 C 30.328827,0.932994 28.253046,0 25.507487,0 Z m 3.208073,4.468978 h 3.241146 c 3.413955,0 5.118033,2.195521 5.118033,6.585644 0,5.017285 -1.704079,7.524089 -5.118034,7.524089 H 22.26634 Z"
       clip-path="url(#clipPath378)" />
    <path
       id="text1-7-6"
       style="font-size:16px;line-height:1;font-family:'CaskaydiaCove Nerd Font Mono';-inkscape-font-specification:'CaskaydiaCove Nerd Font Mono';letter-spacing:-0.299672px;word-spacing:0px;white-space:pre;display:inline;fill:#e30b5c;fill-opacity:1;stroke:none;stroke-width:0.423334;stroke-dasharray:none;stroke-opacity:1"
       d="M -5e-7,0 6.23011,4.4689781 h 5.614128 V 22.200195 c 0,2.367531 -0.367568,4.205283 -1.107943,5.506641 -0.730096,1.285679 -1.776302,1.926498 -3.133658,1.926498 -1.398488,0 -2.4823337,-0.649944 -3.2535489,-1.951303 C 3.5881402,26.380674 3.2080724,24.552047 3.2080724,22.200195 V 17.727083 L -5e-7,22.200195 c 0,3.684568 0.6536267,6.553276 1.9595703,8.607227 1.3059436,2.038271 3.1624382,3.059245 5.5686522,3.059245 2.365095,0 4.209077,-1.020974 5.535581,-3.059245 1.326506,-2.038272 1.988508,-4.906979 1.988508,-8.607227 V 0 H 1.9264969 Z M 19.058268,0 v 33.866667 l 3.208073,-4.473112 v -6.345866 h 3.241146 c 2.745559,0 4.82134,-1.011846 6.230111,-3.03444 1.419052,-2.038271 2.129069,-5.023195 2.129069,-8.958627 0,-3.6375305 -0.710016,-6.3900227 -2.129069,-8.2558258 C 30.328827,0.9329942 28.253046,0 25.507487,0 Z m 3.208073,4.4689781 h 3.241146 c 3.413955,0 5.118034,2.1955209 5.118034,6.5856439 0,5.017285 -1.704079,7.524089 -5.118034,7.524089 h -3.241146 z" />
  </g>
</svg>
